<?xml version="1.0" encoding="utf-8"?>
<!-- Generator: Adobe Illustrator 19.1.0, SVG Export Plug-In . SVG Version: 6.00 Build 0)  -->
<svg version="1.1" id="Layer_1" xmlns="http://www.w3.org/2000/svg" xmlns:xlink="http://www.w3.org/1999/xlink" x="0px" y="0px"
	 viewBox="0 0 720 464.2" style="enable-background:new 0 0 720 464.2;" xml:space="preserve">
<style type="text/css">
	.st0{fill:#FFFFFF;}
	.st1{opacity:0.75;fill:#FFFFFF;}
</style>
<g>
	<path class="st0" d="M406.9,20.4c-50.7-26.3-113-6.5-139.3,44.2c-3.3,6.4-5.9,12.9-7.7,19.6c0,0-3.4,15.9-3.7,23.9
		c-4.2,23.2-12.3,58.2-25.8,80.8c-12.7,21.3-50.1,47.2-81,61.7l-91.8,29.5l0.3,0.3c-19.6,8.3-36.6,22.7-47.1,43.1
		c-23.9,46.2-5.9,103.1,40.3,127.1c46.2,23.9,103.1,5.9,127.1-40.3c1.9-3.7,28.8-75.3,40.6-97.8c13.2-25.1,29-44.9,61.5-66
		c21.8-14.1,103.9-33.9,108.4-35.2c0.2,0,0.6-0.1,0.6-0.1l0,0c25.8-7.8,48.6-25.5,62-51.3C477.4,109,457.6,46.7,406.9,20.4z"/>
	<path class="st1" d="M313.8,15.5C364.6-10.6,426.9,9.3,453,60c3.3,6.4,5.8,13,7.7,19.6c0,0,3.3,15.9,3.6,23.9
		c4.1,23.2,12.1,58.2,25.6,80.9c12.6,21.3,50,47.3,80.9,61.8l91.8,29.7l-0.3,0.3c19.5,8.3,36.6,22.8,47,43.2
		c23.8,46.3,5.7,103.1-40.6,127s-103.1,5.7-127-40.6c-1.9-3.7-28.6-75.3-40.4-97.9c-13.1-25.2-28.9-45-61.4-66.1
		c-21.7-14.2-103.8-34.1-108.3-35.4c-0.2,0-0.6-0.1-0.6-0.1l0,0c-25.8-7.8-48.5-25.6-61.8-51.5C243.2,104,263.1,41.6,313.8,15.5z"/>
</g>
</svg>
