<?xml version="1.0" encoding="utf-8"?>
<!-- Generator: Adobe Illustrator 19.1.0, SVG Export Plug-In . SVG Version: 6.00 Build 0)  -->
<svg version="1.1" id="Layer_1" xmlns="http://www.w3.org/2000/svg" xmlns:xlink="http://www.w3.org/1999/xlink" x="0px" y="0px"
	 viewBox="0 0 720 464.2" style="enable-background:new 0 0 720 464.2;" xml:space="preserve">
<style type="text/css">
	.st0{fill:#6D8DAF;}
	.st1{fill:#1494C9;}
	.st2{font-family:'Avenir-Medium';}
	.st3{font-size:39.8933px;}
	.st4{letter-spacing:3;}
	.st5{fill:#FFFFFF;}
	.st6{font-family:'OROSKOFree';}
	.st7{font-size:90.4927px;}
	.st8{font-size:79.8465px;}
	.st9{letter-spacing:7;}
</style>
<g>
	<path class="st0" d="M588.1,434.2c-3.7-2.3-4.9-7.3-2.5-11l0,0c2.4-3.8,7.3-4.8,11-2.5l0,0c3.8,2.4,4.9,7.3,2.5,11l0,0
		c-1.5,2.3-3.9,3.6-6.4,3.7l0,0C591.2,435.5,589.6,435,588.1,434.2z"/>
	<path class="st0" d="M139.5,430.9c-2.3-3.7-1.2-8.7,2.5-11l0,0c3.7-2.3,8.7-1.2,11,2.5l0,0c2.3,3.7,1.2,8.7-2.5,11l0,0
		c-1.2,0.8-2.6,1.2-3.9,1.2l0,0C143.8,434.8,141.1,433.5,139.5,430.9z"/>
	<path class="st0" d="M613.3,387.3c-4.1-1.5-6.2-6.1-4.7-10.3l0,0c1.5-4.1,6.2-6.2,10.3-4.6l0,0c4.1,1.6,6.2,6.1,4.7,10.3l0,0
		c-1.2,3.1-4,5-7.1,5.2l0,0C615.4,387.9,614.3,387.7,613.3,387.3z"/>
	<path class="st0" d="M115.3,381.8L115.3,381.8L115.3,381.8c-1.5-4.1,0.6-8.7,4.7-10.3l0,0c4.1-1.5,8.7,0.5,10.3,4.7l0,0
		c1.5,4.1-0.5,8.7-4.7,10.2l0,0c-0.8,0.3-1.6,0.5-2.4,0.5l0,0C119.7,387.2,116.5,385.2,115.3,381.8z"/>
	<path class="st0" d="M628.4,336.4c-4.3-0.7-7.3-4.8-6.6-9.1l0,0c0.7-4.3,4.8-7.3,9.1-6.6l0,0c4.3,0.7,7.3,4.8,6.6,9.1l0,0l0,0l0,0
		c-0.6,3.8-3.8,6.6-7.5,6.7l0,0C629.5,336.5,629,336.4,628.4,336.4z"/>
	<path class="st0" d="M101.5,328.9L101.5,328.9L101.5,328.9c-0.7-4.4,2.3-8.4,6.7-9.1l0,0c4.3-0.7,8.4,2.3,9.1,6.7l0,0
		c0.7,4.4-2.3,8.4-6.7,9.1l0,0c-0.3,0-0.6,0.1-0.9,0.1l0,0C105.7,335.8,102.1,332.9,101.5,328.9z"/>
	<path class="st0" d="M106.2,282.6c-4.4-0.2-7.8-3.9-7.6-8.3l0,0c0.2-4.4,3.9-7.8,8.3-7.6l0,0c4.4,0.2,7.8,3.9,7.6,8.4l0,0
		c-0.2,4.1-3.5,7.4-7.6,7.6l0,0C106.6,282.6,106.4,282.6,106.2,282.6z"/>
	<path class="st0" d="M616,220.1c-1.2-4.3,1.3-8.6,5.6-9.8l0,0c4.3-1.1,8.6,1.4,9.8,5.6l0,0c1.1,4.3-1.3,8.6-5.6,9.8l0,0
		c-0.6,0.2-1.2,0.3-1.7,0.3l0,0C620.4,226.1,617,223.8,616,220.1z"/>
	<path class="st0" d="M622,276.7c-1.2-4.3,1.3-8.6,5.6-9.8l0,0c4.3-1.1,8.6,1.4,9.8,5.6l0,0c1.1,4.3-1.3,8.6-5.6,9.8l0,0
		c-0.6,0.2-1.2,0.3-1.7,0.3l0,0C626.4,282.7,623,280.4,622,276.7z"/>
	<path class="st0" d="M112.4,229.8c-4.3-1.1-6.9-5.4-5.8-9.7l0,0c1.1-4.3,5.5-6.8,9.7-5.8l0,0c4.3,1.1,6.9,5.4,5.8,9.7l0,0
		c-0.9,3.5-4,5.9-7.4,6l0,0C113.9,230.1,113.1,230,112.4,229.8z"/>
	<path class="st0" d="M597.6,172L597.6,172c-2-4-0.4-8.7,3.5-10.7l0,0c3.9-2,8.7-0.4,10.7,3.5l0,0c2,3.9,0.4,8.7-3.5,10.7l0,0
		c-1,0.5-2.1,0.8-3.2,0.8l0,0C602,176.5,599,174.9,597.6,172z"/>
	<path class="st0" d="M129.1,179.3c-4-1.9-5.6-6.7-3.7-10.7l0,0c1.9-4,6.7-5.6,10.7-3.7l0,0c4,1.9,5.6,6.7,3.7,10.7l0,0
		c-1.3,2.7-4,4.4-6.8,4.5l0,0C131.6,180.2,130.3,179.9,129.1,179.3z"/>
	<path class="st0" d="M569.8,128.6c-2.7-3.4-2.2-8.5,1.3-11.2l0,0c3.5-2.7,8.5-2.2,11.2,1.3l0,0c2.7,3.5,2.2,8.5-1.3,11.2l0,0
		c-1.4,1.1-3,1.6-4.6,1.7l0,0C574,131.7,571.5,130.7,569.8,128.6z"/>
	<path class="st0" d="M155.6,133.3c-3.5-2.7-4.2-7.7-1.5-11.2l0,0c2.7-3.5,7.7-4.2,11.2-1.5l0,0c3.5,2.7,4.2,7.7,1.5,11.2l0,0
		c-1.5,2-3.7,3-6,3.1l0,0C159,135,157.2,134.5,155.6,133.3z"/>
	<path class="st1" d="M532.9,96.1c-6.4-5.4-7.2-14.9-1.9-21.3l0,0c5.4-6.4,14.9-7.2,21.3-1.9l0,0c6.4,5.4,7.2,14.9,1.9,21.3l0,0
		c-2.8,3.4-6.8,5.2-10.9,5.4l0,0C539.7,99.8,536,98.6,532.9,96.1z"/>
	<path class="st0" d="M190.9,93.5c-2.9-3.3-2.6-8.4,0.8-11.3l0,0c3.3-2.9,8.4-2.6,11.3,0.8l0,0c2.9,3.3,2.5,8.4-0.8,11.3l0,0
		c-1.4,1.2-3.1,1.9-4.9,1.9l0,0C194.9,96.3,192.5,95.4,190.9,93.5z"/>
	<path class="st0" d="M491.4,62.6c-3.9-2.1-5.3-7-3.2-10.8l0,0c2.1-3.9,6.9-5.3,10.8-3.2l0,0c3.9,2.1,5.3,7,3.2,10.8l0,0
		c-1.4,2.5-4,4-6.7,4.2l0,0C494.1,63.6,492.7,63.3,491.4,62.6z"/>
	<path class="st0" d="M233.3,61.5c-2.2-3.8-0.8-8.7,3-10.9l0,0c3.8-2.2,8.7-0.8,10.9,3l0,0c2.2,3.8,0.8,8.7-3,10.9l0,0
		c-1.1,0.6-2.4,1-3.6,1l0,0C237.7,65.7,234.9,64.2,233.3,61.5z"/>
	<path class="st0" d="M443.8,42.7c-4.2-1.3-6.6-5.8-5.3-10l0,0c1.3-4.2,5.8-6.6,10-5.3l0,0c4.2,1.3,6.6,5.8,5.3,10l0,0
		c-1,3.3-4,5.5-7.3,5.7l0,0C445.6,43.1,444.7,43,443.8,42.7z"/>
	<path class="st0" d="M281.3,38.7c-1.4-4.2,1-8.7,5.2-10l0,0c4.2-1.4,8.7,1,10,5.2l0,0c1.4,4.2-1,8.7-5.2,10.1l0,0
		c-0.7,0.2-1.4,0.4-2.1,0.4l0,0C285.8,44.5,282.5,42.3,281.3,38.7z"/>
	<path class="st0" d="M393.3,32.8c-4.4-0.4-7.6-4.3-7.2-8.7l0,0c0.4-4.4,4.3-7.6,8.7-7.2l0,0l0,0l0,0c4.4,0.4,7.6,4.3,7.2,8.7l0,0
		c-0.4,4-3.7,7.1-7.6,7.2l0,0C394,32.8,393.7,32.8,393.3,32.8z"/>
	<path class="st0" d="M333,26.1c-0.5-4.4,2.7-8.3,7.1-8.8l0,0c4.4-0.5,8.3,2.7,8.8,7.1l0,0c0.5,4.4-2.7,8.3-7.1,8.8l0,0
		c-0.2,0-0.3,0-0.5,0l0,0C337.1,33.4,333.4,30.4,333,26.1z"/>
</g>
<text transform="matrix(1 0 0 1 247.3463 155.2557)"><tspan x="0" y="0" class="st0 st2 st3 st4">recreational</tspan><tspan x="-61.7" y="47.9" class="st0 st2 st3 st4">fishing generated</tspan></text>
<text transform="matrix(1 0 0 1 171.4811 338.3827)" class="st5 st6 st7">70,109</text>
<g>
	<text transform="matrix(1 0 0 1 257.6244 443.9159)" class="st5 st2 st8 st9">JOBS</text>
</g>
</svg>
