<?xml version="1.0" encoding="utf-8"?>
<!-- Generator: Adobe Illustrator 19.1.0, SVG Export Plug-In . SVG Version: 6.00 Build 0)  -->
<svg version="1.1" id="Layer_1" xmlns="http://www.w3.org/2000/svg" xmlns:xlink="http://www.w3.org/1999/xlink" x="0px" y="0px"
	 viewBox="0 0 720 464.2" style="enable-background:new 0 0 720 464.2;" xml:space="preserve">
<style type="text/css">
	.st0{fill:#6D8DAF;}
	.st1{font-family:'Avenir-Medium';}
	.st2{font-size:42.7122px;}
	.st3{letter-spacing:4;}
	.st4{fill:#FFFFFF;}
	.st5{font-size:80.1355px;}
	.st6{letter-spacing:8;}
	.st7{font-family:'OROSKOFree';}
	.st8{font-size:46.0282px;}
	.st9{font-size:96.8869px;}
	.st10{font-size:56.0949px;}
	.st11{fill:#2D4870;}
</style>
<text transform="matrix(1 0 0 1 275.0679 408.3064)" class="st0 st1 st2 st3">in sales</text>
<g>
	<text transform="matrix(1 0 0 1 181.6192 340.076)" class="st4 st1 st5 st6">BILLION</text>
</g>
<g>
	<text transform="matrix(1 0 0 1 225.9048 216.0096)" class="st0 st7 st8 st3">$</text>
</g>
<text transform="matrix(1 0 0 1 269.704 242.0252)"><tspan x="0" y="0" class="st4 st7 st9">7</tspan><tspan x="75.7" y="0" class="st4 st7 st10">. </tspan><tspan x="104.9" y="0" class="st4 st7 st9">5</tspan></text>
<path class="st11" d="M360,38.3c132.1,0,239.6,107.5,239.6,239.6c0,72.5-32.2,137.3-83.3,181.2c2.7,0,42.9-0.1,47.2,0
	c43.7-48.3,69.3-111.1,69.3-181.2C632.8,127.5,510.4,5.1,360,5.1C209.6,5.1,87.2,127.5,87.2,277.9c0,69.8,25.5,133,68.8,181.2
	c11.7,0,42.6,0,47,0c-51.4-44-82.6-108.4-82.6-181.2C120.4,145.8,227.9,38.3,360,38.3z"/>
<path class="st0" d="M353.4,5.7C207.8,9.2,89.5,128.4,87.2,274.1c-1.1,71.1,25,135.9,68.8,185c0.8,0,39.8,0,47,0
	c-50.4-43.9-82.6-108.7-82.6-180.7c0-132.1,107.5-239.6,239.6-239.6c96.3,0,179.5,57.1,217.5,139.3c0.3,0.1,0.5,0.3,0.8,0.4
	c13.3-2.9,22.4-6.5,27.9-17.3C561.4,67.4,464.7,3.1,353.4,5.7z"/>
</svg>
